<svg width="24" height="24" viewBox="0 0 24 24" fill="none" xmlns="http://www.w3.org/2000/svg">
<g clip-path="url(#clip0_608_442)">
<path d="M9.5 7.5V16.5L16.5 12L9.5 7.5Z" stroke="black" stroke-linecap="round" stroke-linejoin="round"/>
<path d="M3.12981 4.17003L4.99981 3.93003C7.32192 3.64116 9.65981 3.49755 11.9998 3.50003C14.3398 3.49755 16.6777 3.64116 18.9998 3.93003L20.8998 4.17003C21.6297 4.26073 22.3009 4.61641 22.7858 5.1695C23.2706 5.72258 23.5354 6.43452 23.5298 7.17003V16.87C23.5354 17.6055 23.2706 18.3175 22.7858 18.8706C22.3009 19.4237 21.6297 19.7793 20.8998 19.87L18.9998 20.11C16.6777 20.3989 14.3398 20.5425 11.9998 20.54C9.65981 20.5425 7.32192 20.3989 4.99981 20.11L3.09981 19.87C2.3699 19.7793 1.69873 19.4237 1.21386 18.8706C0.728989 18.3175 0.464201 17.6055 0.469814 16.87V7.15003C0.469979 6.41337 0.74118 5.70252 1.23173 5.15295C1.72229 4.60339 2.3979 4.25352 3.12981 4.17003Z" stroke="black" stroke-linecap="round" stroke-linejoin="round"/>
</g>
<defs>
<clipPath id="clip0_608_442">
<rect width="24" height="24" fill="black"/>
</clipPath>
</defs>
</svg>
